<svg viewBox="0 0 1280.16 715.99" xmlns="http://www.w3.org/2000/svg"><path d="m334.37 509.33-99.34-57.35-99.33 57.35v114.7l99.33 57.36 99.34-57.36z" fill="#383838" stroke="#383839" stroke-miterlimit="10"/><path d="m1280.16 0v715.99h-921.84l67.71-39.09v-220.44l-190.91-110.22-.04.03-190.87 110.19v220.44l67.7 39.09h-111.91v-715.99z" fill="#383838" stroke="#383839" stroke-miterlimit="10"/><g fill="#242424"><path d="m235.08 346.27h-.05l-190.91 110.19v220.44l67.7 39.1h246.42l67.7-39.09v-220.45zm-.08 335.12-99.39-57.39v-114.67l99.39-57.33 99.29 57.33v114.67l-99.29 57.37z" stroke="#383839" stroke-miterlimit="10"/><path d="m1114.28 101.52-111.06 64.12v128.24l111.06 64.12 111.06-64.12v-128.24zm57.72 161.6-57.79 33.37-57.79-33.37v-66.72l57.81-33.4 57.77 33.4z"/><path d="m533.48 14.79-32.77 18.91v37.83l32.77 18.92 32.76-18.92v-37.83zm17 47.67-17 9.84-17.05-9.84v-19.69l17.05-9.84 17 9.84z"/><path d="m79.73 144.12-16.38 9.46v18.91l16.38 9.51 16.38-9.46v-18.96zm8.51 23.88-8.52 4.92-8.52-4.92v-9.85l8.52-4.92 8.52 4.92z"/><path d="m1263 587.56 17.21 9.93v-29.62l-17.21-9.87-53.45 30.86v61.72l53.45 30.81 17.19-9.92v-29.62l-17.19 9.93-27.82-16v-32.17z"/></g><path d="m111.82 715.99h.09 246.33.08" fill="none" stroke="#383839" stroke-miterlimit="10"/></svg>