<svg version="1" xmlns="http://www.w3.org/2000/svg" width="2289.333" height="2289.333" viewBox="0 0 1717.000000 1717.000000"><path d="M855.5.9c-.6.5-10 6.1-21 12.4-19 10.9-37.5 21.6-86.5 49.9-11.8 6.8-35 20.2-51.5 29.8-16.5 9.5-34.3 19.8-39.5 22.8-5.2 3-15.1 8.7-22 12.7-6.9 3.9-17 9.8-22.5 13-5.5 3.2-15.6 9-22.5 13-6.9 3.9-18.6 10.7-26 15-15.7 9.1-35.4 20.5-67.5 39-12.6 7.3-37.2 21.5-54.5 31.5-34.4 19.9-65.7 38-96 55.5-17 9.7-54 31.1-107 61.8-8.5 4.9-24.3 14-35 20.2-10.7 6.2-29.6 17.1-42 24.3-12.4 7.1-27.9 16.1-34.5 19.9l-12 6.9v859.6l29.5 17c16.2 9.3 39.6 22.9 52 30 22 12.8 39.2 22.6 93.5 54 14.9 8.6 36.7 21.2 48.5 28 43.3 25.1 68 39.4 89.5 51.8 12.1 6.9 35.5 20.5 52 30s41.7 24.1 56 32.3c41.5 24 67.3 38.9 92.5 53.5 12.9 7.5 34.5 19.9 48 27.7 13.5 7.8 34.6 20 47 27.2 12.4 7.1 31.7 18.3 43 24.8 11.3 6.4 24.1 13.9 28.5 16.5 4.4 2.6 20.3 11.8 35.3 20.4l27.3 15.8 21.7-12.5c11.9-6.9 33.2-19.1 47.2-27.2 14-8.1 34.3-19.8 45-26 26-15 59.6-34.4 86.5-50 12.1-7 32.4-18.7 45-26 12.7-7.3 30.2-17.4 39-22.5 8.8-5.1 23.4-13.6 32.5-18.8 9.1-5.2 19-10.9 22-12.7 3-1.7 11.4-6.6 18.5-10.7 7.2-4.1 19.1-11 26.5-15.3 7.4-4.3 22.1-12.8 32.5-18.8 10.5-6 28-16.1 39-22.5 11-6.4 29.9-17.3 42-24.2 12.1-7 26.1-15.1 31-18 9.8-5.7 42.6-24.7 73.5-42.5 38.8-22.3 101.7-58.7 131-75.7l9.5-5.5.2-429.9.3-429.9-13.3-7.6c-7.2-4.1-26.7-15.4-43.2-24.9-58.8-34-73.3-42.4-96.5-55.8-12.9-7.4-26-15-29-16.7-11.1-6.4-51.6-29.8-96-55.4-25-14.4-48-27.7-51-29.6-3-1.8-14.5-8.4-25.5-14.8-22.8-13-52.2-30-94-54.2-15.9-9.2-37.3-21.6-47.5-27.4-10.2-5.9-29.1-16.8-42-24.3-12.9-7.5-36.5-21.1-52.5-30.3-15.9-9.2-38.9-22.5-51-29.5-12.1-7-29.6-17.1-39-22.5-9.3-5.4-25.1-14.5-35-20.2C859-.1 859.3 0 857.8 0c-.8 0-1.8.4-2.3.9zm10.3 78.9c3.7 2.2 10.8 6.3 15.7 9.2 5 2.9 19.1 11.1 31.5 18.2 25.9 14.9 57.5 33.2 94 54.3 14 8.1 35.6 20.6 48 27.7 12.4 7.2 32.9 19 45.5 26.3 12.7 7.3 33.1 19.1 45.5 26.3 12.4 7.1 26.6 15.3 31.5 18.2 5 2.9 16.4 9.6 25.5 14.7 9.1 5.2 26.9 15.5 39.5 22.8 12.7 7.4 26.6 15.4 31 18 4.4 2.5 18.8 10.8 32 18.4 13.2 7.7 30.8 17.8 39 22.6 8.3 4.7 17.9 10.3 21.5 12.4 7.8 4.6 37.7 21.8 47.5 27.3 3.9 2.2 8.6 5 10.5 6.3 1.9 1.2 13 7.6 24.5 14.1 11.6 6.5 21.5 12.3 22.2 12.9.6.5 11.1 6.6 23.2 13.5 12.2 6.9 26.5 15 31.9 18.1l9.7 5.7.3 391.5.2 391.5-12.2 7c-6.8 3.8-15 8.5-18.3 10.4-11.1 6.5-39.9 23.1-48.5 28.1-4.7 2.6-18.8 10.8-31.5 18.2-12.6 7.3-33.1 19.1-45.5 26.3-12.4 7.1-34 19.6-48 27.7-14 8.1-35.6 20.6-48 27.7-12.4 7.1-33.3 19.2-46.5 26.9-13.2 7.6-34.6 19.9-47.5 27.4-12.9 7.5-34.3 19.8-47.5 27.4-13.2 7.7-34.1 19.8-46.5 26.9-12.4 7.1-26.5 15.3-31.5 18.2-4.9 2.9-16.4 9.5-25.5 14.8-9.1 5.2-19 10.9-22 12.7-3 1.7-12.9 7.5-22 12.7-9.1 5.2-21 12.1-26.5 15.3-5.5 3.2-15.8 9.2-23 13.3-7.1 4.1-17 9.8-22 12.7-4.9 2.9-18.2 10.5-29.5 17-11.3 6.4-23.8 13.7-27.8 16.2-4.1 2.4-8 4.2-8.8 3.9-.8-.3-7.8-4.3-15.6-8.9-14.5-8.6-23.8-13.9-63.8-36.7-12.4-7.1-22.9-13.2-23.5-13.7-.5-.5-11.1-6.6-23.5-13.7-32.4-18.6-43.4-25-96-55.4-26.7-15.5-34.9-20.3-53.5-30.9-7.7-4.4-18.2-10.5-23.3-13.4-5-3-19.2-11.2-31.5-18.2-23.9-13.8-55.9-32.4-83.2-48.2-9.3-5.4-21.4-12.3-26.7-15.4-16-9.2-52.7-30.4-78.3-45.2-13.2-7.6-34.6-19.9-47.5-27.4-12.9-7.5-34.3-19.8-47.5-27.5-13.2-7.6-26.7-15.4-30-17.3-3.3-1.9-11.8-6.9-19-11l-13-7.5V466.5l9-5.2c5-2.8 12.8-7.4 17.5-10.1 4.7-2.7 14.4-8.3 21.5-12.4 7.2-4.1 17.5-10.1 23-13.3 5.5-3.2 17.4-10.1 26.5-15.3 9.1-5.2 19-10.9 22-12.7 3-1.7 13.2-7.6 22.5-13 9.4-5.4 21.1-12.2 26-15.1 5-2.9 14.6-8.4 21.5-12.3 6.9-3.9 17-9.8 22.5-13 5.5-3.2 20.1-11.7 32.5-18.9 12.4-7.1 34-19.6 48-27.7 14-8.1 35.6-20.6 48-27.7 23.5-13.5 50.8-29.3 94-54.3 14-8.1 35.9-20.7 48.5-28 25.1-14.5 62-35.8 77-44.5 5.2-3 14.5-8.4 20.7-11.9 6.2-3.5 16.3-9.3 22.3-12.9 6.1-3.6 18.2-10.6 27-15.7 8.8-5 20.5-11.8 26-15 14-8.2 19.9-11.5 20.8-11.5.4 0 3.8 1.7 7.5 3.8z"/><path d="M840.8 337.8c-16.3 9.4-54.6 31.6-71.8 41.4-4.7 2.7-18.6 10.8-31 18-12.4 7.2-29.7 17.2-38.5 22.2-8.8 5.1-20.5 11.9-26 15.1-5.5 3.2-15.8 9.2-23 13.3-7.1 4.1-17 9.8-22 12.7-27.1 15.6-56.9 32.9-71.5 41.3-9.1 5.2-19 10.9-22 12.7-3 1.7-13.1 7.6-22.5 13-9.3 5.4-20.9 12.1-25.8 14.9-4.8 2.8-19 10.9-31.5 18.1-12.5 7.1-23.1 13.3-23.7 13.8-.5.4-8 4.8-16.5 9.6l-15.5 8.8-.3 265.4-.2 265.4 2.2 1.4c1.3.8 9.5 5.6 18.3 10.6 18.9 10.9 56.9 32.8 71 41 5.5 3.2 17.4 10.1 26.5 15.3 9.1 5.2 19 10.9 22 12.7 3 1.8 12.9 7.5 22 12.7 9.1 5.2 20.6 11.9 25.5 14.8 5 2.9 19.1 11.1 31.5 18.2 24.3 14 53.6 31 94 54.3 14 8.1 35.6 20.6 48 27.7 12.4 7.2 32.9 19 45.5 26.3 41.4 24 51.8 29.8 52.9 29.8.6 0 7.2-3.5 14.6-7.8 13.7-7.9 18.1-10.4 48.5-28 35.6-20.7 61.8-35.8 83.2-48.2 12.3-7 26.7-15.3 32-18.5 5.4-3.1 15.4-8.8 22.3-12.7 6.9-3.9 17-9.8 22.5-13 5.5-3.3 16.8-9.8 25-14.6 8.3-4.7 17.9-10.3 21.5-12.4 5.9-3.4 25.4-14.7 49.5-28.6 5-2.8 19.6-11.3 32.5-18.8 12.9-7.4 33.6-19.4 46-26.5 32-18.5 53.9-31.2 58-33.6l3.5-2.1-.5-265.5-.5-265.5-8-4.6c-4.4-2.5-12-7-17-9.9-4.9-2.9-15.1-8.7-22.5-13-7.4-4.2-17.7-10.1-22.8-13.1-5.1-3-19.2-11.2-31.5-18.2-12.2-7-34.6-20-49.7-28.7-43.2-25-68.3-39.5-92.3-53.2-12.2-7-22.6-13-23.2-13.5-.5-.5-10.9-6.5-23-13.4-12.1-7-33.5-19.3-47.5-27.4-14-8.1-35.7-20.7-48.2-27.9-12.5-7.2-26.9-15.5-32-18.5-5.1-2.9-15.6-8.9-23.3-13.3-7.7-4.4-14.4-8.4-14.9-8.9-.6-.5-1.5-.9-2-.8-.6 0-8.6 4.4-17.8 9.7zM891 448c14 8.1 35.9 20.7 48.5 28 71.1 41.1 116.9 67.5 142 82 8.3 4.8 19.5 11.3 25 14.5 10.1 5.9 28.9 16.7 71 41 12.7 7.3 29.5 17.1 37.5 21.7l14.5 8.4v429.6l-16.5 9.6c-25.4 14.6-48.9 28.2-55 31.7-3 1.7-11.3 6.6-18.5 10.7-15.5 8.9-27.4 15.8-45 26-26.8 15.5-33.5 19.4-52.5 30.3-10.7 6.2-23.3 13.5-28 16.2-4.7 2.8-19.1 11.1-32 18.5-12.9 7.5-33.4 19.3-45.5 26.3-12.1 7-32.1 18.6-44.5 25.7-12.4 7.2-25 14.5-28 16.3l-5.6 3.2-16.9-9.7c-9.4-5.4-31.2-18-48.5-28s-40.3-23.3-51-29.5c-10.7-6.2-29.6-17.1-42-24.2-12.4-7.2-35.3-20.5-51-29.5-15.7-9.1-37.7-21.8-49-28.3-29.1-16.9-58.7-34-86.5-50-13.2-7.5-24.6-14.2-25.2-14.8-1-.7-1.3-45.1-1.3-215.6V643.4l6.3-3.6c7.8-4.4 29-16.6 42.2-24.3 5.5-3.2 17.2-10 26-15 34.7-20 74.3-42.8 79.5-45.9 7-4.1 15.5-9 35.5-20.6 8.8-5.1 20.5-11.8 26-15 5.5-3.2 15.6-9 22.5-13s17-9.8 22.5-13c71.7-41.5 99.9-57.8 106-61.1l5-2.8 3.5 2.1c1.9 1.1 15 8.7 29 16.8z"/></svg>